<?xml version="1.0" standalone="no"?>
<!DOCTYPE svg PUBLIC "-//W3C//DTD SVG 20010904//EN"
 "http://www.w3.org/TR/2001/REC-SVG-20010904/DTD/svg10.dtd">
<svg version="1.0" xmlns="http://www.w3.org/2000/svg"
 width="612.000000pt" height="484.000000pt" viewBox="0 0 612.000000 484.000000"
 preserveAspectRatio="xMidYMid meet">

<g transform="translate(0.000000,484.000000) scale(0.100000,-0.100000)"
fill="#000000" stroke="none">
<path d="M2325 4443 c-277 -23 -537 -96 -772 -217 -703 -360 -1136 -1101
-1099 -1882 45 -977 778 -1782 1741 -1914 893 -122 1756 361 2126 1188 60 136
114 313 141 462 29 163 35 438 14 589 -9 63 -17 116 -19 117 -3 4 -189 -25
-193 -29 -1 -1 2 -22 7 -47 17 -82 23 -380 10 -486 -70 -573 -390 -1065 -886
-1360 -555 -331 -1262 -336 -1826 -13 -591 338 -947 981 -915 1654 31 679 426
1273 1040 1565 137 65 270 111 402 136 49 10 139 37 199 60 181 71 428 132
544 135 31 1 27 3 -24 14 -122 27 -350 40 -490 28z"/>
<path d="M2830 4290 c-308 -38 -612 -154 -905 -345 -284 -185 -599 -504 -816
-826 -82 -123 -195 -323 -263 -468 -88 -188 -89 -190 -81 -311 4 -58 9 -109
12 -113 3 -5 29 43 57 105 153 331 363 640 614 899 l137 143 -68 -37 c-38 -21
-93 -55 -122 -77 -30 -22 -57 -40 -61 -40 -12 0 89 115 192 217 282 279 597
499 880 611 237 95 425 127 694 119 211 -6 357 -32 532 -93 124 -43 347 -150
355 -170 8 -20 -166 -243 -256 -328 l-30 -29 5 54 c4 34 12 58 23 64 24 15
101 94 101 104 0 4 -20 2 -43 -6 -49 -16 -63 -13 -242 63 -80 33 -100 38 -175
38 -60 0 -104 -6 -150 -21 -75 -24 -170 -39 -170 -26 0 4 16 17 35 28 l35 20
-232 -3 c-190 -2 -248 -6 -313 -22 -81 -20 -199 -73 -245 -110 -23 -18 -20
-18 30 3 106 46 195 62 335 61 151 0 227 -16 352 -74 88 -41 173 -95 173 -110
0 -6 -12 -10 -27 -10 -16 0 -48 -10 -73 -22 l-45 -22 86 -6 c67 -5 97 -13 139
-36 91 -48 134 -139 108 -223 -20 -64 -36 -64 -30 1 l5 53 -34 -50 c-79 -116
-197 -167 -444 -191 -164 -17 -243 -33 -307 -64 -23 -11 -45 -20 -50 -20 -14
0 -9 182 7 274 14 82 42 172 79 259 10 22 12 37 6 37 -18 0 -177 -159 -217
-217 -34 -51 -38 -53 -41 -31 -3 28 35 122 69 170 l22 30 -24 -7 c-62 -18
-315 -151 -414 -217 -300 -199 -504 -413 -695 -728 -45 -74 -80 -125 -76 -112
3 12 9 32 12 45 19 74 90 222 147 307 77 113 209 254 387 413 71 64 52 59 -50
-11 -148 -103 -308 -253 -417 -392 -169 -217 -337 -544 -458 -895 l-28 -80 38
-88 c21 -49 41 -85 45 -80 4 4 21 51 39 103 38 110 113 273 161 345 18 28 29
41 25 30 -75 -198 -117 -364 -136 -537 -12 -113 -13 -111 97 -253 246 -319
592 -536 997 -626 545 -121 1138 54 1543 456 172 170 163 148 115 291 -51 153
-71 259 -78 416 l-6 127 -42 -69 c-109 -175 -282 -353 -430 -440 -36 -21 -33
-16 31 51 156 162 224 269 427 674 74 149 150 297 170 330 19 33 34 62 32 64
-3 2 -151 -44 -214 -67 -25 -9 22 31 81 70 115 75 263 141 413 182 206 56 345
74 695 86 281 10 377 20 503 50 71 18 216 80 259 112 14 10 29 4 97 -40 92
-58 91 -60 66 60 -17 82 -62 184 -101 231 -102 126 -217 218 -360 290 -225
114 -720 267 -1104 342 -101 20 -154 37 -212 66 -223 112 -477 198 -693 235
-110 18 -383 26 -485 14z m1515 -479 c17 -7 14 -10 -20 -20 -48 -14 -143 -65
-105 -56 215 48 470 20 815 -91 219 -71 386 -166 506 -291 62 -63 123 -143
115 -150 -2 -2 -39 17 -83 41 -209 115 -469 203 -725 243 -143 22 -511 25
-636 4 -45 -7 -85 -11 -88 -8 -3 3 24 22 60 42 36 20 66 38 66 40 0 6 -87 -17
-160 -42 -191 -66 -379 -177 -515 -305 -22 -20 -41 -35 -44 -33 -8 8 129 202
195 275 98 109 113 116 74 39 l-32 -64 64 61 c79 76 128 114 214 164 38 22 63
40 57 40 -19 0 -132 -44 -192 -74 l-53 -27 32 45 c73 107 212 176 355 175 44
0 89 -4 100 -8z m-824 -66 c65 -33 79 -50 79 -94 0 -106 -160 -135 -240 -45
-64 74 -63 120 2 153 50 25 87 22 159 -14z m1409 -459 c164 -21 297 -49 446
-97 155 -49 179 -64 52 -32 -127 33 -347 69 -501 84 -162 15 -559 6 -717 -16
-96 -13 -388 -73 -448 -91 -14 -5 -14 -4 -2 4 57 38 380 121 560 146 140 19
465 20 610 2z m-2751 -236 c-161 -318 -139 -722 55 -1009 20 -30 35 -55 34
-57 -8 -7 -111 74 -175 137 -133 131 -220 307 -249 501 -19 127 -14 156 10 58
20 -82 88 -235 130 -290 l27 -35 -6 55 c-3 30 -8 69 -11 86 -8 53 15 219 42
305 28 92 88 211 135 271 17 21 32 38 35 38 2 0 -10 -27 -27 -60z m1025 18
c-30 -51 -102 -134 -228 -266 -89 -93 -169 -189 -206 -244 -33 -50 -60 -87
-60 -81 0 23 43 131 76 192 38 70 78 125 128 179 l30 32 -61 0 c-113 0 -293
-46 -416 -105 l-52 -26 45 41 c94 84 158 108 481 179 91 21 191 61 234 95 24
19 39 21 29 4z m-15 -286 c-126 -129 -329 -365 -329 -383 0 -4 33 10 74 30 40
21 105 47 143 59 67 22 215 53 220 48 2 -2 -36 -20 -84 -41 -264 -116 -469
-273 -645 -493 -32 -40 -58 -71 -58 -68 0 3 20 52 46 110 139 318 395 627 694
839 36 26 69 46 74 47 5 0 -56 -66 -135 -148z"/>
</g>
</svg>
